<svg version="1.1" width="256" height="92" viewBox="0 0 256 92"
    xmlns="http://www.w3.org/2000/svg">
    <g>
        <svg width="166.4" height="194.4" x="-19.200000000000003" y="-51.2">
            <g transform="scale(1.3) rotate(72, 83.2, 97.2)">
                <line x1="-83.2" y1="0" x2="-83.2" y2="194.4" stroke="#555"></line>
                <line x1="-77.2" y1="0" x2="-77.2" y2="194.4" stroke="#555"></line>
                <line x1="-71.2" y1="0" x2="-71.2" y2="194.4" stroke="#555"></line>
                <line x1="-65.2" y1="0" x2="-65.2" y2="194.4" stroke="#555"></line>
                <line x1="-59.2" y1="0" x2="-59.2" y2="194.4" stroke="#555"></line>
                <line x1="-53.2" y1="0" x2="-53.2" y2="194.4" stroke="#555"></line>
                <line x1="-47.2" y1="0" x2="-47.2" y2="194.4" stroke="#555"></line>
                <line x1="-41.2" y1="0" x2="-41.2" y2="194.4" stroke="#555"></line>
                <line x1="-35.2" y1="0" x2="-35.2" y2="194.4" stroke="#555"></line>
                <line x1="-29.200000000000003" y1="0" x2="-29.200000000000003" y2="194.4" stroke="#555"></line>
                <line x1="-23.200000000000003" y1="0" x2="-23.200000000000003" y2="194.4" stroke="#555"></line>
                <line x1="-17.200000000000003" y1="0" x2="-17.200000000000003" y2="194.4" stroke="#555"></line>
                <line x1="-11.200000000000003" y1="0" x2="-11.200000000000003" y2="194.4" stroke="#555"></line>
                <line x1="-5.200000000000003" y1="0" x2="-5.200000000000003" y2="194.4" stroke="#555"></line>
                <line x1="0.7999999999999972" y1="0" x2="0.7999999999999972" y2="194.4" stroke="#555"></line>
                <line x1="6.799999999999997" y1="0" x2="6.799999999999997" y2="194.4" stroke="#555"></line>
                <line x1="12.799999999999997" y1="0" x2="12.799999999999997" y2="194.4" stroke="#555"></line>
                <line x1="18.799999999999997" y1="0" x2="18.799999999999997" y2="194.4" stroke="#555"></line>
                <line x1="24.799999999999997" y1="0" x2="24.799999999999997" y2="194.4" stroke="#555"></line>
                <line x1="30.799999999999997" y1="0" x2="30.799999999999997" y2="194.4" stroke="#555"></line>
                <line x1="36.8" y1="0" x2="36.8" y2="194.4" stroke="#555"></line>
                <line x1="42.8" y1="0" x2="42.8" y2="194.4" stroke="#555"></line>
                <line x1="48.8" y1="0" x2="48.8" y2="194.4" stroke="#555"></line>
                <line x1="54.8" y1="0" x2="54.8" y2="194.4" stroke="#555"></line>
                <line x1="60.8" y1="0" x2="60.8" y2="194.4" stroke="#555"></line>
                <line x1="66.8" y1="0" x2="66.8" y2="194.4" stroke="#555"></line>
                <line x1="72.8" y1="0" x2="72.8" y2="194.4" stroke="#555"></line>
                <line x1="78.8" y1="0" x2="78.8" y2="194.4" stroke="#555"></line>
                <line x1="84.8" y1="0" x2="84.8" y2="194.4" stroke="#555"></line>
                <line x1="90.8" y1="0" x2="90.8" y2="194.4" stroke="#555"></line>
                <line x1="96.8" y1="0" x2="96.8" y2="194.4" stroke="#555"></line>
                <line x1="102.8" y1="0" x2="102.8" y2="194.4" stroke="#555"></line>
                <line x1="108.8" y1="0" x2="108.8" y2="194.4" stroke="#555"></line>
                <line x1="114.8" y1="0" x2="114.8" y2="194.4" stroke="#555"></line>
                <line x1="120.8" y1="0" x2="120.8" y2="194.4" stroke="#555"></line>
                <line x1="126.8" y1="0" x2="126.8" y2="194.4" stroke="#555"></line>
                <line x1="132.8" y1="0" x2="132.8" y2="194.4" stroke="#555"></line>
                <line x1="138.8" y1="0" x2="138.8" y2="194.4" stroke="#555"></line>
                <line x1="144.8" y1="0" x2="144.8" y2="194.4" stroke="#555"></line>
                <line x1="150.8" y1="0" x2="150.8" y2="194.4" stroke="#555"></line>
                <line x1="156.8" y1="0" x2="156.8" y2="194.4" stroke="#555"></line>
                <line x1="162.8" y1="0" x2="162.8" y2="194.4" stroke="#555"></line>
                <line x1="168.8" y1="0" x2="168.8" y2="194.4" stroke="#555"></line>
                <line x1="174.8" y1="0" x2="174.8" y2="194.4" stroke="#555"></line>
                <line x1="180.8" y1="0" x2="180.8" y2="194.4" stroke="#555"></line>
                <line x1="186.8" y1="0" x2="186.8" y2="194.4" stroke="#555"></line>
                <line x1="192.8" y1="0" x2="192.8" y2="194.4" stroke="#555"></line>
                <line x1="198.8" y1="0" x2="198.8" y2="194.4" stroke="#555"></line>
                <line x1="204.8" y1="0" x2="204.8" y2="194.4" stroke="#555"></line>
                <line x1="210.8" y1="0" x2="210.8" y2="194.4" stroke="#555"></line>
                <line x1="216.8" y1="0" x2="216.8" y2="194.4" stroke="#555"></line>
                <line x1="222.8" y1="0" x2="222.8" y2="194.4" stroke="#555"></line>
                <line x1="228.8" y1="0" x2="228.8" y2="194.4" stroke="#555"></line>
                <line x1="234.8" y1="0" x2="234.8" y2="194.4" stroke="#555"></line>
                <line x1="240.8" y1="0" x2="240.8" y2="194.4" stroke="#555"></line>
                <line x1="246.8" y1="0" x2="246.8" y2="194.4" stroke="#555"></line>
            </g>
        </svg>
        <svg width="166.4" height="194.4" x="44.8" y="-51.2">
            <g transform="scale(1.3) rotate(-66, 83.2, 97.2)">
                <line x1="-83.2" y1="0" x2="-83.2" y2="194.4" stroke="#555"></line>
                <line x1="-77.2" y1="0" x2="-77.2" y2="194.4" stroke="#555"></line>
                <line x1="-71.2" y1="0" x2="-71.2" y2="194.4" stroke="#555"></line>
                <line x1="-65.2" y1="0" x2="-65.2" y2="194.4" stroke="#555"></line>
                <line x1="-59.2" y1="0" x2="-59.2" y2="194.4" stroke="#555"></line>
                <line x1="-53.2" y1="0" x2="-53.2" y2="194.4" stroke="#555"></line>
                <line x1="-47.2" y1="0" x2="-47.2" y2="194.4" stroke="#555"></line>
                <line x1="-41.2" y1="0" x2="-41.2" y2="194.4" stroke="#555"></line>
                <line x1="-35.2" y1="0" x2="-35.2" y2="194.4" stroke="#555"></line>
                <line x1="-29.200000000000003" y1="0" x2="-29.200000000000003" y2="194.4" stroke="#555"></line>
                <line x1="-23.200000000000003" y1="0" x2="-23.200000000000003" y2="194.4" stroke="#555"></line>
                <line x1="-17.200000000000003" y1="0" x2="-17.200000000000003" y2="194.4" stroke="#555"></line>
                <line x1="-11.200000000000003" y1="0" x2="-11.200000000000003" y2="194.4" stroke="#555"></line>
                <line x1="-5.200000000000003" y1="0" x2="-5.200000000000003" y2="194.4" stroke="#555"></line>
                <line x1="0.7999999999999972" y1="0" x2="0.7999999999999972" y2="194.4" stroke="#555"></line>
                <line x1="6.799999999999997" y1="0" x2="6.799999999999997" y2="194.4" stroke="#555"></line>
                <line x1="12.799999999999997" y1="0" x2="12.799999999999997" y2="194.4" stroke="#555"></line>
                <line x1="18.799999999999997" y1="0" x2="18.799999999999997" y2="194.4" stroke="#555"></line>
                <line x1="24.799999999999997" y1="0" x2="24.799999999999997" y2="194.4" stroke="#555"></line>
                <line x1="30.799999999999997" y1="0" x2="30.799999999999997" y2="194.4" stroke="#555"></line>
                <line x1="36.8" y1="0" x2="36.8" y2="194.4" stroke="#555"></line>
                <line x1="42.8" y1="0" x2="42.8" y2="194.4" stroke="#555"></line>
                <line x1="48.8" y1="0" x2="48.8" y2="194.4" stroke="#555"></line>
                <line x1="54.8" y1="0" x2="54.8" y2="194.4" stroke="#555"></line>
                <line x1="60.8" y1="0" x2="60.8" y2="194.4" stroke="#555"></line>
                <line x1="66.8" y1="0" x2="66.8" y2="194.4" stroke="#555"></line>
                <line x1="72.8" y1="0" x2="72.8" y2="194.4" stroke="#555"></line>
                <line x1="78.8" y1="0" x2="78.8" y2="194.4" stroke="#555"></line>
                <line x1="84.8" y1="0" x2="84.8" y2="194.4" stroke="#555"></line>
                <line x1="90.8" y1="0" x2="90.8" y2="194.4" stroke="#555"></line>
                <line x1="96.8" y1="0" x2="96.8" y2="194.4" stroke="#555"></line>
                <line x1="102.8" y1="0" x2="102.8" y2="194.4" stroke="#555"></line>
                <line x1="108.8" y1="0" x2="108.8" y2="194.4" stroke="#555"></line>
                <line x1="114.8" y1="0" x2="114.8" y2="194.4" stroke="#555"></line>
                <line x1="120.8" y1="0" x2="120.8" y2="194.4" stroke="#555"></line>
                <line x1="126.8" y1="0" x2="126.8" y2="194.4" stroke="#555"></line>
                <line x1="132.8" y1="0" x2="132.8" y2="194.4" stroke="#555"></line>
                <line x1="138.8" y1="0" x2="138.8" y2="194.4" stroke="#555"></line>
                <line x1="144.8" y1="0" x2="144.8" y2="194.4" stroke="#555"></line>
                <line x1="150.8" y1="0" x2="150.8" y2="194.4" stroke="#555"></line>
                <line x1="156.8" y1="0" x2="156.8" y2="194.4" stroke="#555"></line>
                <line x1="162.8" y1="0" x2="162.8" y2="194.4" stroke="#555"></line>
                <line x1="168.8" y1="0" x2="168.8" y2="194.4" stroke="#555"></line>
                <line x1="174.8" y1="0" x2="174.8" y2="194.4" stroke="#555"></line>
                <line x1="180.8" y1="0" x2="180.8" y2="194.4" stroke="#555"></line>
                <line x1="186.8" y1="0" x2="186.8" y2="194.4" stroke="#555"></line>
                <line x1="192.8" y1="0" x2="192.8" y2="194.4" stroke="#555"></line>
                <line x1="198.8" y1="0" x2="198.8" y2="194.4" stroke="#555"></line>
                <line x1="204.8" y1="0" x2="204.8" y2="194.4" stroke="#555"></line>
                <line x1="210.8" y1="0" x2="210.8" y2="194.4" stroke="#555"></line>
                <line x1="216.8" y1="0" x2="216.8" y2="194.4" stroke="#555"></line>
                <line x1="222.8" y1="0" x2="222.8" y2="194.4" stroke="#555"></line>
                <line x1="228.8" y1="0" x2="228.8" y2="194.4" stroke="#555"></line>
                <line x1="234.8" y1="0" x2="234.8" y2="194.4" stroke="#555"></line>
                <line x1="240.8" y1="0" x2="240.8" y2="194.4" stroke="#555"></line>
                <line x1="246.8" y1="0" x2="246.8" y2="194.4" stroke="#555"></line>
            </g>
        </svg>
        <svg width="166.4" height="194.4" x="108.8" y="-51.2">
            <g transform="scale(1.3) rotate(-7, 83.2, 97.2)">
                <line x1="-83.2" y1="0" x2="-83.2" y2="194.4" stroke="#555"></line>
                <line x1="-77.2" y1="0" x2="-77.2" y2="194.4" stroke="#555"></line>
                <line x1="-71.2" y1="0" x2="-71.2" y2="194.4" stroke="#555"></line>
                <line x1="-65.2" y1="0" x2="-65.2" y2="194.4" stroke="#555"></line>
                <line x1="-59.2" y1="0" x2="-59.2" y2="194.4" stroke="#555"></line>
                <line x1="-53.2" y1="0" x2="-53.2" y2="194.4" stroke="#555"></line>
                <line x1="-47.2" y1="0" x2="-47.2" y2="194.4" stroke="#555"></line>
                <line x1="-41.2" y1="0" x2="-41.2" y2="194.4" stroke="#555"></line>
                <line x1="-35.2" y1="0" x2="-35.2" y2="194.4" stroke="#555"></line>
                <line x1="-29.200000000000003" y1="0" x2="-29.200000000000003" y2="194.4" stroke="#555"></line>
                <line x1="-23.200000000000003" y1="0" x2="-23.200000000000003" y2="194.4" stroke="#555"></line>
                <line x1="-17.200000000000003" y1="0" x2="-17.200000000000003" y2="194.4" stroke="#555"></line>
                <line x1="-11.200000000000003" y1="0" x2="-11.200000000000003" y2="194.4" stroke="#555"></line>
                <line x1="-5.200000000000003" y1="0" x2="-5.200000000000003" y2="194.4" stroke="#555"></line>
                <line x1="0.7999999999999972" y1="0" x2="0.7999999999999972" y2="194.4" stroke="#555"></line>
                <line x1="6.799999999999997" y1="0" x2="6.799999999999997" y2="194.4" stroke="#555"></line>
                <line x1="12.799999999999997" y1="0" x2="12.799999999999997" y2="194.4" stroke="#555"></line>
                <line x1="18.799999999999997" y1="0" x2="18.799999999999997" y2="194.4" stroke="#555"></line>
                <line x1="24.799999999999997" y1="0" x2="24.799999999999997" y2="194.4" stroke="#555"></line>
                <line x1="30.799999999999997" y1="0" x2="30.799999999999997" y2="194.4" stroke="#555"></line>
                <line x1="36.8" y1="0" x2="36.8" y2="194.4" stroke="#555"></line>
                <line x1="42.8" y1="0" x2="42.8" y2="194.4" stroke="#555"></line>
                <line x1="48.8" y1="0" x2="48.8" y2="194.4" stroke="#555"></line>
                <line x1="54.8" y1="0" x2="54.8" y2="194.4" stroke="#555"></line>
                <line x1="60.8" y1="0" x2="60.8" y2="194.4" stroke="#555"></line>
                <line x1="66.8" y1="0" x2="66.8" y2="194.4" stroke="#555"></line>
                <line x1="72.8" y1="0" x2="72.8" y2="194.4" stroke="#555"></line>
                <line x1="78.8" y1="0" x2="78.8" y2="194.4" stroke="#555"></line>
                <line x1="84.8" y1="0" x2="84.8" y2="194.4" stroke="#555"></line>
                <line x1="90.8" y1="0" x2="90.8" y2="194.4" stroke="#555"></line>
                <line x1="96.8" y1="0" x2="96.8" y2="194.4" stroke="#555"></line>
                <line x1="102.8" y1="0" x2="102.8" y2="194.4" stroke="#555"></line>
                <line x1="108.8" y1="0" x2="108.8" y2="194.4" stroke="#555"></line>
                <line x1="114.8" y1="0" x2="114.8" y2="194.4" stroke="#555"></line>
                <line x1="120.8" y1="0" x2="120.8" y2="194.4" stroke="#555"></line>
                <line x1="126.8" y1="0" x2="126.8" y2="194.4" stroke="#555"></line>
                <line x1="132.8" y1="0" x2="132.8" y2="194.4" stroke="#555"></line>
                <line x1="138.8" y1="0" x2="138.8" y2="194.4" stroke="#555"></line>
                <line x1="144.8" y1="0" x2="144.8" y2="194.4" stroke="#555"></line>
                <line x1="150.8" y1="0" x2="150.8" y2="194.4" stroke="#555"></line>
                <line x1="156.8" y1="0" x2="156.8" y2="194.4" stroke="#555"></line>
                <line x1="162.8" y1="0" x2="162.8" y2="194.4" stroke="#555"></line>
                <line x1="168.8" y1="0" x2="168.8" y2="194.4" stroke="#555"></line>
                <line x1="174.8" y1="0" x2="174.8" y2="194.4" stroke="#555"></line>
                <line x1="180.8" y1="0" x2="180.8" y2="194.4" stroke="#555"></line>
                <line x1="186.8" y1="0" x2="186.8" y2="194.4" stroke="#555"></line>
                <line x1="192.8" y1="0" x2="192.8" y2="194.4" stroke="#555"></line>
                <line x1="198.8" y1="0" x2="198.8" y2="194.4" stroke="#555"></line>
                <line x1="204.8" y1="0" x2="204.8" y2="194.4" stroke="#555"></line>
                <line x1="210.8" y1="0" x2="210.8" y2="194.4" stroke="#555"></line>
                <line x1="216.8" y1="0" x2="216.8" y2="194.4" stroke="#555"></line>
                <line x1="222.8" y1="0" x2="222.8" y2="194.4" stroke="#555"></line>
                <line x1="228.8" y1="0" x2="228.8" y2="194.4" stroke="#555"></line>
                <line x1="234.8" y1="0" x2="234.8" y2="194.4" stroke="#555"></line>
                <line x1="240.8" y1="0" x2="240.8" y2="194.4" stroke="#555"></line>
                <line x1="246.8" y1="0" x2="246.8" y2="194.4" stroke="#555"></line>
            </g>
        </svg>
        <svg width="166.4" height="194.4" x="172.8" y="-51.2">
            <g transform="scale(1.3) rotate(34, 83.2, 97.2)">
                <line x1="-83.2" y1="0" x2="-83.2" y2="194.4" stroke="#555"></line>
                <line x1="-77.2" y1="0" x2="-77.2" y2="194.4" stroke="#555"></line>
                <line x1="-71.2" y1="0" x2="-71.2" y2="194.4" stroke="#555"></line>
                <line x1="-65.2" y1="0" x2="-65.2" y2="194.4" stroke="#555"></line>
                <line x1="-59.2" y1="0" x2="-59.2" y2="194.4" stroke="#555"></line>
                <line x1="-53.2" y1="0" x2="-53.2" y2="194.4" stroke="#555"></line>
                <line x1="-47.2" y1="0" x2="-47.2" y2="194.4" stroke="#555"></line>
                <line x1="-41.2" y1="0" x2="-41.2" y2="194.4" stroke="#555"></line>
                <line x1="-35.2" y1="0" x2="-35.2" y2="194.4" stroke="#555"></line>
                <line x1="-29.200000000000003" y1="0" x2="-29.200000000000003" y2="194.4" stroke="#555"></line>
                <line x1="-23.200000000000003" y1="0" x2="-23.200000000000003" y2="194.4" stroke="#555"></line>
                <line x1="-17.200000000000003" y1="0" x2="-17.200000000000003" y2="194.4" stroke="#555"></line>
                <line x1="-11.200000000000003" y1="0" x2="-11.200000000000003" y2="194.4" stroke="#555"></line>
                <line x1="-5.200000000000003" y1="0" x2="-5.200000000000003" y2="194.4" stroke="#555"></line>
                <line x1="0.7999999999999972" y1="0" x2="0.7999999999999972" y2="194.4" stroke="#555"></line>
                <line x1="6.799999999999997" y1="0" x2="6.799999999999997" y2="194.4" stroke="#555"></line>
                <line x1="12.799999999999997" y1="0" x2="12.799999999999997" y2="194.4" stroke="#555"></line>
                <line x1="18.799999999999997" y1="0" x2="18.799999999999997" y2="194.4" stroke="#555"></line>
                <line x1="24.799999999999997" y1="0" x2="24.799999999999997" y2="194.4" stroke="#555"></line>
                <line x1="30.799999999999997" y1="0" x2="30.799999999999997" y2="194.4" stroke="#555"></line>
                <line x1="36.8" y1="0" x2="36.8" y2="194.4" stroke="#555"></line>
                <line x1="42.8" y1="0" x2="42.8" y2="194.4" stroke="#555"></line>
                <line x1="48.8" y1="0" x2="48.8" y2="194.4" stroke="#555"></line>
                <line x1="54.8" y1="0" x2="54.8" y2="194.4" stroke="#555"></line>
                <line x1="60.8" y1="0" x2="60.8" y2="194.4" stroke="#555"></line>
                <line x1="66.8" y1="0" x2="66.8" y2="194.4" stroke="#555"></line>
                <line x1="72.8" y1="0" x2="72.8" y2="194.4" stroke="#555"></line>
                <line x1="78.8" y1="0" x2="78.8" y2="194.4" stroke="#555"></line>
                <line x1="84.8" y1="0" x2="84.8" y2="194.4" stroke="#555"></line>
                <line x1="90.8" y1="0" x2="90.8" y2="194.4" stroke="#555"></line>
                <line x1="96.8" y1="0" x2="96.8" y2="194.4" stroke="#555"></line>
                <line x1="102.8" y1="0" x2="102.8" y2="194.4" stroke="#555"></line>
                <line x1="108.8" y1="0" x2="108.8" y2="194.4" stroke="#555"></line>
                <line x1="114.8" y1="0" x2="114.8" y2="194.4" stroke="#555"></line>
                <line x1="120.8" y1="0" x2="120.8" y2="194.4" stroke="#555"></line>
                <line x1="126.8" y1="0" x2="126.8" y2="194.4" stroke="#555"></line>
                <line x1="132.8" y1="0" x2="132.8" y2="194.4" stroke="#555"></line>
                <line x1="138.8" y1="0" x2="138.8" y2="194.4" stroke="#555"></line>
                <line x1="144.8" y1="0" x2="144.8" y2="194.4" stroke="#555"></line>
                <line x1="150.8" y1="0" x2="150.8" y2="194.4" stroke="#555"></line>
                <line x1="156.8" y1="0" x2="156.8" y2="194.4" stroke="#555"></line>
                <line x1="162.8" y1="0" x2="162.8" y2="194.4" stroke="#555"></line>
                <line x1="168.8" y1="0" x2="168.8" y2="194.4" stroke="#555"></line>
                <line x1="174.8" y1="0" x2="174.8" y2="194.4" stroke="#555"></line>
                <line x1="180.8" y1="0" x2="180.8" y2="194.4" stroke="#555"></line>
                <line x1="186.8" y1="0" x2="186.8" y2="194.4" stroke="#555"></line>
                <line x1="192.8" y1="0" x2="192.8" y2="194.4" stroke="#555"></line>
                <line x1="198.8" y1="0" x2="198.8" y2="194.4" stroke="#555"></line>
                <line x1="204.8" y1="0" x2="204.8" y2="194.4" stroke="#555"></line>
                <line x1="210.8" y1="0" x2="210.8" y2="194.4" stroke="#555"></line>
                <line x1="216.8" y1="0" x2="216.8" y2="194.4" stroke="#555"></line>
                <line x1="222.8" y1="0" x2="222.8" y2="194.4" stroke="#555"></line>
                <line x1="228.8" y1="0" x2="228.8" y2="194.4" stroke="#555"></line>
                <line x1="234.8" y1="0" x2="234.8" y2="194.4" stroke="#555"></line>
                <line x1="240.8" y1="0" x2="240.8" y2="194.4" stroke="#555"></line>
                <line x1="246.8" y1="0" x2="246.8" y2="194.4" stroke="#555"></line>
            </g>
        </svg>
    </g>
    <g>
        <g>
            <text x="34.400000000000006" y="73.60000000000001" font-size="73.60000000000001"
                  transform="translate(1, 3) rotate(12, 34.400000000000006, 73.60000000000001)"
                  fill="rgba(255,255,255,0.00019727918319404126)">c
            </text>
            <text x="34.400000000000006" y="73.60000000000001" font-size="73.60000000000001"
                  transform="translate(-4, -1) rotate(23, 34.400000000000006, 73.60000000000001)"
                  fill="rgba(255,255,255,0.0031585635151714087)">0
            </text>
            <text x="34.400000000000006" y="73.60000000000001" font-size="73.60000000000001"
                  transform="translate(3, -1) rotate(7, 34.400000000000006, 73.60000000000001)" fill="#555">1
            </text>
            <text x="34.400000000000006" y="73.60000000000001" font-size="73.60000000000001"
                  transform="translate(-4, -1) rotate(10, 34.400000000000006, 73.60000000000001)"
                  fill="rgba(255,255,255,0.006638778457418084)">0
            </text>
            <text x="34.400000000000006" y="73.60000000000001" font-size="73.60000000000001"
                  transform="translate(-3, 0) rotate(22, 34.400000000000006, 73.60000000000001)"
                  fill="rgba(255,255,255,0.007894546820316465)">7
            </text>
            <text x="34.400000000000006" y="73.60000000000001" font-size="73.60000000000001"
                  transform="translate(-1, 4) rotate(17, 34.400000000000006, 73.60000000000001)"
                  fill="rgba(255,255,255,0.00047791810240596535)">3
            </text>
        </g>
        <g>
            <text x="90.4" y="73.60000000000001" font-size="73.60000000000001"
                  transform="translate(-1, 3) rotate(-18, 90.4, 73.60000000000001)"
                  fill="rgba(255,255,255,0.007818773163016886)">3
            </text>
            <text x="90.4" y="73.60000000000001" font-size="73.60000000000001"
                  transform="translate(-3, -3) rotate(-1, 90.4, 73.60000000000001)"
                  fill="rgba(255,255,255,0.008933580049779266)">f
            </text>
            <text x="90.4" y="73.60000000000001" font-size="73.60000000000001"
                  transform="translate(-4, 1) rotate(38, 90.4, 73.60000000000001)"
                  fill="rgba(255,255,255,0.009158615241758525)">e
            </text>
            <text x="90.4" y="73.60000000000001" font-size="73.60000000000001"
                  transform="translate(-2, 0) rotate(25, 90.4, 73.60000000000001)" fill="#555">2
            </text>
            <text x="90.4" y="73.60000000000001" font-size="73.60000000000001"
                  transform="translate(-4, -1) rotate(-38, 90.4, 73.60000000000001)"
                  fill="rgba(255,255,255,0.006748669557273388)">b
            </text>
            <text x="90.4" y="73.60000000000001" font-size="73.60000000000001"
                  transform="translate(2, -2) rotate(-18, 90.4, 73.60000000000001)"
                  fill="rgba(255,255,255,0.008245361410081387)">6
            </text>
        </g>
        <g>
            <text x="146.4" y="73.60000000000001" font-size="73.60000000000001"
                  transform="translate(2, -4) rotate(27, 146.4, 73.60000000000001)" fill="#555">3
            </text>
            <text x="146.4" y="73.60000000000001" font-size="73.60000000000001"
                  transform="translate(-3, 3) rotate(-9, 146.4, 73.60000000000001)"
                  fill="rgba(255,255,255,0.002499939030967653)">0
            </text>
            <text x="146.4" y="73.60000000000001" font-size="73.60000000000001"
                  transform="translate(1, 2) rotate(11, 146.4, 73.60000000000001)"
                  fill="rgba(255,255,255,0.009806233756244183)">3
            </text>
            <text x="146.4" y="73.60000000000001" font-size="73.60000000000001"
                  transform="translate(1, -3) rotate(19, 146.4, 73.60000000000001)"
                  fill="rgba(255,255,255,0.008415298291947693)">6
            </text>
            <text x="146.4" y="73.60000000000001" font-size="73.60000000000001"
                  transform="translate(2, 3) rotate(17, 146.4, 73.60000000000001)"
                  fill="rgba(255,255,255,0.005425753814633936)">9
            </text>
            <text x="146.4" y="73.60000000000001" font-size="73.60000000000001"
                  transform="translate(1, -2) rotate(20, 146.4, 73.60000000000001)"
                  fill="rgba(255,255,255,0.008091920756269246)">5
            </text>
        </g>
        <g>
            <text x="202.4" y="73.60000000000001" font-size="73.60000000000001"
                  transform="translate(2, 1) rotate(4, 202.4, 73.60000000000001)"
                  fill="rgba(255,255,255,0.0017767657432705163)">7
            </text>
            <text x="202.4" y="73.60000000000001" font-size="73.60000000000001"
                  transform="translate(2, -2) rotate(0, 202.4, 73.60000000000001)"
                  fill="rgba(255,255,255,0.009975390364415944)">5
            </text>
            <text x="202.4" y="73.60000000000001" font-size="73.60000000000001"
                  transform="translate(3, -4) rotate(5, 202.4, 73.60000000000001)"
                  fill="rgba(255,255,255,0.005864960306789726)">c
            </text>
            <text x="202.4" y="73.60000000000001" font-size="73.60000000000001"
                  transform="translate(-3, 0) rotate(-12, 202.4, 73.60000000000001)"
                  fill="rgba(255,255,255,0.0027645210642367603)">4
            </text>
            <text x="202.4" y="73.60000000000001" font-size="73.60000000000001"
                  transform="translate(4, 2) rotate(22, 202.4, 73.60000000000001)" fill="#555">4
            </text>
            <text x="202.4" y="73.60000000000001" font-size="73.60000000000001"
                  transform="translate(3, -1) rotate(-24, 202.4, 73.60000000000001)"
                  fill="rgba(255,255,255,0.009166481958236546)">9
            </text>
        </g>
    </g>
</svg>